<svg id="visual" viewBox="0 0 2560 1440" width="2560" height="1440" xmlns="http://www.w3.org/2000/svg" xmlns:xlink="http://www.w3.org/1999/xlink" version="1.1"><path d="M0 993L61 983.2C122 973.3 244 953.7 365.8 955.5C487.7 957.3 609.3 980.7 731.2 991.5C853 1002.3 975 1000.7 1097 997.3C1219 994 1341 989 1463 981.5C1585 974 1707 964 1828.8 967.7C1950.7 971.3 2072.3 988.7 2194.2 979.2C2316 969.7 2438 933.3 2499 915.2L2560 897L2560 1441L2499 1441C2438 1441 2316 1441 2194.2 1441C2072.3 1441 1950.7 1441 1828.8 1441C1707 1441 1585 1441 1463 1441C1341 1441 1219 1441 1097 1441C975 1441 853 1441 731.2 1441C609.3 1441 487.7 1441 365.8 1441C244 1441 122 1441 61 1441L0 1441Z" fill="#5d93c2"></path><path d="M0 1020L61 1013.8C122 1007.7 244 995.3 365.8 987.5C487.7 979.7 609.3 976.3 731.2 987.5C853 998.7 975 1024.3 1097 1039.2C1219 1054 1341 1058 1463 1074.5C1585 1091 1707 1120 1828.8 1133.3C1950.7 1146.7 2072.3 1144.3 2194.2 1123.3C2316 1102.3 2438 1062.7 2499 1042.8L2560 1023L2560 1441L2499 1441C2438 1441 2316 1441 2194.2 1441C2072.3 1441 1950.7 1441 1828.8 1441C1707 1441 1585 1441 1463 1441C1341 1441 1219 1441 1097 1441C975 1441 853 1441 731.2 1441C609.3 1441 487.7 1441 365.8 1441C244 1441 122 1441 61 1441L0 1441Z" fill="#417ab2"></path><path d="M0 1273L61 1245C122 1217 244 1161 365.8 1158.5C487.7 1156 609.3 1207 731.2 1206.3C853 1205.7 975 1153.3 1097 1130.8C1219 1108.3 1341 1115.7 1463 1121.8C1585 1128 1707 1133 1828.8 1145.2C1950.7 1157.3 2072.3 1176.7 2194.2 1181.7C2316 1186.7 2438 1177.3 2499 1172.7L2560 1168L2560 1441L2499 1441C2438 1441 2316 1441 2194.2 1441C2072.3 1441 1950.7 1441 1828.8 1441C1707 1441 1585 1441 1463 1441C1341 1441 1219 1441 1097 1441C975 1441 853 1441 731.2 1441C609.3 1441 487.7 1441 365.8 1441C244 1441 122 1441 61 1441L0 1441Z" fill="#2662a2"></path><path d="M0 1237L61 1252.7C122 1268.3 244 1299.7 365.8 1307C487.7 1314.3 609.3 1297.7 731.2 1283.3C853 1269 975 1257 1097 1251.5C1219 1246 1341 1247 1463 1258.7C1585 1270.3 1707 1292.7 1828.8 1310C1950.7 1327.3 2072.3 1339.7 2194.2 1346.7C2316 1353.7 2438 1355.3 2499 1356.2L2560 1357L2560 1441L2499 1441C2438 1441 2316 1441 2194.2 1441C2072.3 1441 1950.7 1441 1828.8 1441C1707 1441 1585 1441 1463 1441C1341 1441 1219 1441 1097 1441C975 1441 853 1441 731.2 1441C609.3 1441 487.7 1441 365.8 1441C244 1441 122 1441 61 1441L0 1441Z" fill="#054a91"></path></svg>